# Blender v2.77 (sub 0) OBJ File: ''
# www.blender.org
v 0.000000 0.537459 -1.233032
v -0.000000 4.479780 -0.101970
v 1.067837 0.537459 -0.616516
v 0.088309 4.479780 -0.050985
v 1.067837 0.537459 0.616516
v 0.088309 4.479780 0.050985
v -0.000000 0.537459 1.233032
v -0.000000 4.479780 0.101970
v -1.067837 0.537459 0.616516
v -0.088309 4.479780 0.050985
v -1.067837 0.537459 -0.616516
v -0.088309 4.479780 -0.050985
v -0.000000 1.194512 -0.898752
v -0.000000 1.851566 -0.739396
v -0.000000 2.508620 -0.580039
v -0.000000 3.165673 -0.420683
v -0.000000 3.822726 -0.261327
v 0.226315 3.822726 -0.130663
v 0.364322 3.165673 -0.210341
v 0.502329 2.508620 -0.290020
v 0.640336 1.851566 -0.369698
v 0.778342 1.194512 -0.449376
v 0.226315 3.822726 0.130663
v 0.364322 3.165673 0.210342
v 0.502329 2.508620 0.290020
v 0.640336 1.851566 0.369698
v 0.778342 1.194512 0.449376
v -0.000000 3.822726 0.261327
v -0.000000 3.165673 0.420683
v -0.000000 2.508620 0.580039
v -0.000000 1.851566 0.739396
v -0.000000 1.194512 0.898752
v -0.226315 3.822726 0.130663
v -0.364322 3.165673 0.210341
v -0.502329 2.508620 0.290020
v -0.640336 1.851566 0.369698
v -0.778342 1.194512 0.449376
v -0.226315 3.822726 -0.130663
v -0.364322 3.165673 -0.210341
v -0.502329 2.508620 -0.290020
v -0.640336 1.851566 -0.369698
v -0.778342 1.194512 -0.449376
v -0.000000 3.744390 -0.361624
v 0.313176 3.744390 -0.180812
v 0.313176 3.744390 0.180812
v -0.000000 3.744390 0.361624
v -0.313176 3.744390 0.180812
v -0.313176 3.744390 -0.180812
v -0.000000 3.077496 -0.514778
v 0.445811 3.077496 -0.257389
v 0.445811 3.077496 0.257389
v -0.000000 3.077496 0.514779
v -0.445811 3.077496 0.257389
v -0.445811 3.077496 -0.257389
v -0.000000 2.429103 -0.649915
v 0.562843 2.429103 -0.324958
v 0.562843 2.429103 0.324958
v -0.000000 2.429103 0.649915
v -0.562843 2.429103 0.324957
v -0.562843 2.429103 -0.324957
v -0.000000 1.793073 -0.816503
v 0.707113 1.793073 -0.408252
v 0.707113 1.793073 0.408252
v -0.000000 1.793073 0.816503
v -0.707113 1.793073 0.408252
v -0.707113 1.793073 -0.408252
v 0.000000 1.158385 -1.021195
v 0.884381 1.158385 -0.510597
v 0.884381 1.158385 0.510597
v -0.000000 1.158385 1.021195
v -0.884381 1.158385 0.510597
v -0.884381 1.158385 -0.510597
v 0.000000 0.537459 -0.440632
v 0.381599 0.537459 -0.220316
v 0.381599 0.537459 0.220316
v -0.000000 0.537459 0.440632
v -0.381599 0.537459 0.220316
v -0.381599 0.537459 -0.220316
v -0.000000 -0.003086 -0.440632
v 0.381599 -0.003086 -0.220316
v 0.381599 -0.003086 0.220316
v -0.000000 -0.003086 0.440632
v -0.381599 -0.003086 0.220316
v -0.381599 -0.003086 -0.220316
vt 0.0497 0.9438
vt 0.0401 0.9675
vt 0.0509 0.9475
vt 0.0332 0.9828
vt 0.0505 0.9516
vt 0.0473 0.9461
vt 0.0462 0.9542
vt 0.0483 0.9433
vt 0.0457 0.9510
vt 0.0494 0.9422
vt 0.0991 0.8389
vt 0.1147 0.7954
vt 0.1100 0.8295
vt 0.0873 0.8616
vt 0.0961 0.8390
vt 0.0959 0.8486
vt 0.0761 0.8850
vt 0.0832 0.8683
vt 0.0836 0.8708
vt 0.0721 0.8941
vt 0.0655 0.9089
vt 0.0721 0.8936
vt 0.0542 0.9327
vt 0.0611 0.9186
vt 0.0608 0.9184
vt 0.0942 0.8495
vt 0.1004 0.8451
vt 0.0916 0.8568
vt 0.0754 0.8864
vt 0.0820 0.8741
vt 0.0649 0.9094
vt 0.0716 0.8952
vt 0.0536 0.9333
vt 0.0605 0.9190
vt 0.0898 0.8524
vt 0.0920 0.8478
vt 0.0871 0.8589
vt 0.0852 0.8659
vt 0.0800 0.8753
vt 0.0711 0.8958
vt 0.0534 0.9350
vt 0.0605 0.9199
vt 0.0886 0.8478
vt 0.0882 0.8398
vt 0.0853 0.8546
vt 0.0832 0.8676
vt 0.0747 0.8866
vt 0.0792 0.8735
vt 0.0710 0.8953
vt 0.0648 0.9100
vt 0.0547 0.9369
vt 0.0612 0.9201
vt 0.0928 0.8373
vt 0.0930 0.8221
vt 0.0846 0.8614
vt 0.0882 0.8458
vt 0.0754 0.8853
vt 0.0806 0.8701
vt 0.0654 0.9095
vt 0.0714 0.8942
vt 0.0613 0.9194
vt 0.1022 0.8262
vt 0.0878 0.8585
vt 0.0762 0.8844
vt 0.0546 0.9336
vt 0.0551 0.9355
vt 0.0651 0.9101
vt 0.0652 0.9088
vt 0.0747 0.8872
vt 0.0828 0.8656
vt 0.9481 0.0790
vt 0.8743 0.1063
vt 0.8720 0.0351
vt 0.0953 0.8621
vt 0.0709 0.8521
vt 0.1427 0.8065
vt 0.1222 0.8464
vt 0.8547 0.1285
vt 0.8578 0.1121
vt 0.8880 0.1171
vt 0.7952 0.0784
vt 0.7951 0.1669
vt 0.9481 0.1671
vt 0.8690 0.1384
vt 0.8856 0.1337
vt 0.8707 0.2094
vt 0.0419 0.9543
vt 0.0434 0.9641
vt 0.0676 0.8202
vt 0.0997 0.7925
vn 0.4781 0.2924 -0.8282
vn 0.9563 0.2924 0.0000
vn 0.4781 0.2924 0.8282
vn -0.4781 0.2924 0.8282
vn 0.0000 1.0000 0.0000
vn -0.9563 0.2924 0.0000
vn -0.4781 0.2924 -0.8282
vn -0.4576 0.4032 -0.7925
vn -0.4716 0.3321 -0.8169
vn -0.4807 0.2751 -0.8326
vn -0.4828 0.2602 -0.8362
vn -0.4796 0.2825 -0.8307
vn -0.9151 0.4032 0.0000
vn -0.9432 0.3321 0.0000
vn -0.9614 0.2751 0.0000
vn -0.9655 0.2602 0.0000
vn -0.9593 0.2825 0.0000
vn -0.4576 0.4032 0.7925
vn -0.4716 0.3321 0.8169
vn -0.4807 0.2751 0.8326
vn -0.4828 0.2602 0.8362
vn -0.4796 0.2825 0.8307
vn 0.4576 0.4032 0.7925
vn 0.4716 0.3321 0.8169
vn 0.4807 0.2751 0.8326
vn 0.4828 0.2602 0.8362
vn 0.4796 0.2825 0.8307
vn 0.9151 0.4032 0.0000
vn 0.9432 0.3321 0.0000
vn 0.9614 0.2751 0.0000
vn 0.9655 0.2602 0.0000
vn 0.9593 0.2825 0.0000
vn 0.4576 0.4032 -0.7925
vn 0.4716 0.3321 -0.8169
vn 0.4807 0.2751 -0.8326
vn 0.4828 0.2602 -0.8362
vn 0.4796 0.2825 -0.8307
vn 0.3349 -0.7426 0.5800
vn 0.6697 -0.7426 0.0000
vn 0.3349 -0.7426 -0.5800
vn -0.3349 -0.7426 -0.5800
vn -0.6697 -0.7426 0.0000
vn -0.3349 -0.7426 0.5800
vn -0.3672 -0.6787 0.6360
vn -0.7344 -0.6787 0.0000
vn -0.3672 -0.6787 -0.6360
vn 0.3672 -0.6787 -0.6360
vn 0.7344 -0.6787 0.0000
vn 0.3672 -0.6787 0.6360
vn -0.3979 -0.6056 0.6892
vn -0.7958 -0.6056 0.0000
vn -0.3979 -0.6056 -0.6892
vn 0.3979 -0.6056 -0.6892
vn 0.7958 -0.6056 0.0000
vn 0.3979 -0.6056 0.6892
vn -0.3295 -0.7522 0.5706
vn -0.6589 -0.7522 0.0000
vn -0.3295 -0.7522 -0.5706
vn 0.3295 -0.7522 -0.5706
vn 0.6589 -0.7522 0.0000
vn 0.3295 -0.7522 0.5706
vn -0.1612 -0.9466 0.2793
vn -0.3225 -0.9466 0.0000
vn -0.1612 -0.9466 -0.2793
vn 0.1612 -0.9466 -0.2793
vn 0.3225 -0.9466 0.0000
vn 0.1612 -0.9466 0.2793
vn -1.0000 0.0000 0.0000
vn 0.0000 -1.0000 -0.0000
vn 0.5000 -0.0000 0.8660
vn 0.5000 -0.0000 -0.8660
vn -0.5000 0.0000 -0.8660
vn -0.5000 0.0000 0.8660
vn 1.0000 0.0000 0.0000
s off
f 43/1/1 4/2/1 44/3/1
f 44/3/2 6/4/2 45/5/2
f 6/4/3 46/6/3 45/5/3
f 46/6/4 10/7/4 47/8/4
f 12/9/5 10/7/5 6/4/5
f 10/7/6 48/10/6 47/8/6
f 12/9/7 43/1/7 48/10/7
f 42/11/8 1/12/8 11/13/8
f 41/14/9 67/15/9 72/16/9
f 40/17/10 61/18/10 66/19/10
f 60/20/11 16/21/11 55/22/11
f 38/23/12 49/24/12 54/25/12
f 37/26/13 11/13/13 9/27/13
f 71/28/14 41/14/14 72/16/14
f 35/29/15 66/19/15 65/30/15
f 34/31/16 60/20/16 59/32/16
f 33/33/17 54/25/17 53/34/17
f 32/35/18 9/27/18 7/36/18
f 70/37/19 36/38/19 71/28/19
f 64/39/20 35/29/20 65/30/20
f 58/40/21 34/31/21 59/32/21
f 28/41/22 53/34/22 52/42/22
f 27/43/23 7/36/23 5/44/23
f 69/45/24 31/46/24 70/37/24
f 25/47/25 64/39/25 63/48/25
f 57/49/26 29/50/26 58/40/26
f 23/51/27 52/42/27 51/52/27
f 22/53/28 5/44/28 3/54/28
f 21/55/29 69/45/29 68/56/29
f 20/57/30 63/48/30 62/58/30
f 19/59/31 57/49/31 56/60/31
f 50/61/32 23/51/32 51/52/32
f 13/62/33 3/54/33 1/12/33
f 14/63/34 68/56/34 67/15/34
f 15/64/35 62/58/35 61/18/35
f 16/21/36 56/60/36 55/22/36
f 17/65/37 50/61/37 49/24/37
f 38/23/38 43/1/38 17/65/38
f 47/8/39 38/23/39 33/33/39
f 46/6/40 33/33/40 28/41/40
f 45/5/41 28/41/41 23/51/41
f 44/3/42 23/51/42 18/66/42
f 43/1/43 18/66/43 17/65/43
f 49/24/44 19/59/44 16/21/44
f 50/61/45 24/67/45 19/59/45
f 51/52/46 29/50/46 24/67/46
f 29/50/47 53/34/47 34/31/47
f 53/34/48 39/68/48 34/31/48
f 54/25/49 16/21/49 39/68/49
f 15/64/50 56/60/50 20/57/50
f 56/60/51 25/47/51 20/57/51
f 57/49/52 30/69/52 25/47/52
f 58/40/53 35/29/53 30/69/53
f 59/32/54 40/17/54 35/29/54
f 60/20/55 15/64/55 40/17/55
f 14/63/56 62/58/56 21/55/56
f 21/55/57 63/48/57 26/70/57
f 63/48/58 31/46/58 26/70/58
f 31/46/59 65/30/59 36/38/59
f 65/30/60 41/14/60 36/38/60
f 66/19/61 14/63/61 41/14/61
f 13/62/62 68/56/62 22/53/62
f 68/56/63 27/43/63 22/53/63
f 69/45/64 32/35/64 27/43/64
f 32/35/65 71/28/65 37/26/65
f 37/26/66 72/16/66 42/11/66
f 72/16/67 13/62/67 42/11/67
f 78/71/68 83/72/68 77/73/68
f 9/27/69 77/74/69 76/75/69
f 1/12/69 73/76/69 78/77/69
f 81/78/69 82/79/69 84/80/69
f 76/81/70 81/78/70 75/82/70
f 73/83/71 80/84/71 79/85/71
f 73/83/72 84/80/72 78/71/72
f 77/73/73 82/79/73 76/81/73
f 75/82/74 80/84/74 74/86/74
f 43/1/1 2/87/1 4/2/1
f 44/3/2 4/2/2 6/4/2
f 6/4/3 8/88/3 46/6/3
f 46/6/4 8/88/4 10/7/4
f 6/4/5 4/2/5 2/87/5
f 2/87/5 12/9/5 6/4/5
f 10/7/5 8/88/5 6/4/5
f 10/7/6 12/9/6 48/10/6
f 12/9/7 2/87/7 43/1/7
f 42/11/8 13/62/8 1/12/8
f 41/14/9 14/63/9 67/15/9
f 40/17/10 15/64/10 61/18/10
f 60/20/11 39/68/11 16/21/11
f 38/23/12 17/65/12 49/24/12
f 37/26/13 42/11/13 11/13/13
f 71/28/14 36/38/14 41/14/14
f 35/29/15 40/17/15 66/19/15
f 34/31/16 39/68/16 60/20/16
f 33/33/17 38/23/17 54/25/17
f 32/35/18 37/26/18 9/27/18
f 70/37/19 31/46/19 36/38/19
f 64/39/20 30/69/20 35/29/20
f 58/40/21 29/50/21 34/31/21
f 28/41/22 33/33/22 53/34/22
f 27/43/23 32/35/23 7/36/23
f 69/45/24 26/70/24 31/46/24
f 25/47/25 30/69/25 64/39/25
f 57/49/26 24/67/26 29/50/26
f 23/51/27 28/41/27 52/42/27
f 22/53/28 27/43/28 5/44/28
f 21/55/29 26/70/29 69/45/29
f 20/57/30 25/47/30 63/48/30
f 19/59/31 24/67/31 57/49/31
f 50/61/32 18/66/32 23/51/32
f 13/62/33 22/53/33 3/54/33
f 14/63/34 21/55/34 68/56/34
f 15/64/35 20/57/35 62/58/35
f 16/21/36 19/59/36 56/60/36
f 17/65/37 18/66/37 50/61/37
f 38/23/38 48/10/38 43/1/38
f 47/8/39 48/10/39 38/23/39
f 46/6/40 47/8/40 33/33/40
f 45/5/41 46/6/41 28/41/41
f 44/3/42 45/5/42 23/51/42
f 43/1/43 44/3/43 18/66/43
f 49/24/44 50/61/44 19/59/44
f 50/61/45 51/52/45 24/67/45
f 51/52/46 52/42/46 29/50/46
f 29/50/47 52/42/47 53/34/47
f 53/34/48 54/25/48 39/68/48
f 54/25/49 49/24/49 16/21/49
f 15/64/50 55/22/50 56/60/50
f 56/60/51 57/49/51 25/47/51
f 57/49/52 58/40/52 30/69/52
f 58/40/53 59/32/53 35/29/53
f 59/32/54 60/20/54 40/17/54
f 60/20/55 55/22/55 15/64/55
f 14/63/56 61/18/56 62/58/56
f 21/55/57 62/58/57 63/48/57
f 63/48/58 64/39/58 31/46/58
f 31/46/59 64/39/59 65/30/59
f 65/30/60 66/19/60 41/14/60
f 66/19/61 61/18/61 14/63/61
f 13/62/62 67/15/62 68/56/62
f 68/56/63 69/45/63 27/43/63
f 69/45/64 70/37/64 32/35/64
f 32/35/65 70/37/65 71/28/65
f 37/26/66 71/28/66 72/16/66
f 72/16/67 67/15/67 13/62/67
f 78/71/68 84/80/68 83/72/68
f 75/89/69 5/44/69 7/36/69
f 7/36/69 9/27/69 76/75/69
f 76/75/69 75/89/69 7/36/69
f 9/27/69 11/13/69 78/77/69
f 1/12/69 3/54/69 74/90/69
f 5/44/69 75/89/69 74/90/69
f 3/54/69 5/44/69 74/90/69
f 78/77/69 77/74/69 9/27/69
f 1/12/69 74/90/69 73/76/69
f 78/77/69 11/13/69 1/12/69
f 84/80/69 79/85/69 80/84/69
f 80/84/69 81/78/69 84/80/69
f 82/79/69 83/72/69 84/80/69
f 76/81/70 82/79/70 81/78/70
f 73/83/71 74/86/71 80/84/71
f 73/83/72 79/85/72 84/80/72
f 77/73/73 83/72/73 82/79/73
f 75/82/74 81/78/74 80/84/74
